# xmcd
#
# Track frame offsets:
#	150
#	16829
#	28670
#	41946
#	55920
#	72272
#	86237
#	103907
#	114115
#	123568
#	136697
#	151206
#	165897
#	179583
#
# Disc length: 2556 seconds
#
# Revision: 0
# Processed by: cddbd v1.5.2PL0 Copyright (c) Steve Scherf et al.
# Submitted via: EasyCDDAExtractor 9.0.0.1
#
DISCID=b509fa0e
DTITLE=Kasey Chambers and Shane Nicholson - Rattlin Bones
DYEAR=2008
DGENRE=Country
TTITLE0=Rattlin' Bones
TTITLE1=Once In A While
TTITLE2=Sweetest Waste Of Time
TTITLE3=Monkey On A Wire
TTITLE4=One More Year
TTITLE5=The House That Never Was
TTITLE6=Wildflower
TTITLE7=No One Hurts Up Here
TTITLE8=The Devil's Inside My Head
TTITLE9=Sleeping Cold
TTITLE10=Adeline
TTITLE11=Jackson Hole
TTITLE12=Your Day Will Come
TTITLE13=Woe Is Mine
EXTD=
EXTT0=
EXTT1=
EXTT2=
EXTT3=
EXTT4=
EXTT5=
EXTT6=
EXTT7=
EXTT8=
EXTT9=
EXTT10=
EXTT11=
EXTT12=
EXTT13=
PLAYORDER=
